<?xml version="1.0" encoding="utf-8"?>
<!-- Generator: Adobe Illustrator 18.1.1, SVG Export Plug-In . SVG Version: 6.00 Build 0)  -->
<svg version="1.1" id="Layer_1" xmlns="http://www.w3.org/2000/svg" xmlns:xlink="http://www.w3.org/1999/xlink" x="0px" y="0px"
	 viewBox="0 0 55.4 51.9" enable-background="new 0 0 55.4 51.9" xml:space="preserve">
<g>
	<g>
		<polygon fill="#02B1B4" points="50.2,28.8 46.6,25.7 41.9,25.7 39.9,25.7 45.6,16.4 47.3,9.8 42.4,9.7 33.1,13.8 26.4,19.8 
			27.4,12.8 27.3,4 22.8,5 14.5,14.8 10,14.7 7.3,19 5.2,31.4 10.9,35 10.4,37.6 13.6,40.4 13.5,44.9 18.5,47.3 23.3,45.4 28,48 
			33.7,46.4 38,45.4 41.1,35.4 38.7,33.6 47.5,29.8 		"/>
	</g>
	<polygon fill="#00646C" points="40,14.8 26.4,28.5 27.4,31.1 32.3,29.5 35.4,31.2 39.9,25.7 45.6,16.4 	"/>
	<polygon fill="#02B1B4" points="42.4,9.7 40,14.8 26.4,28.5 25.2,26.1 23.1,25.4 26.4,19.8 33.1,13.8 	"/>
	<polygon fill="#01C8C9" points="47.3,9.8 40,14.8 45.6,16.4 	"/>
	<polygon fill="#01E4E3" points="42.4,9.7 47.3,9.8 40,14.8 	"/>
	<polygon fill="#019996" points="41.9,25.7 39.9,25.7 35.4,31.2 38.7,33.7 47.5,29.8 	"/>
	<polygon fill="#01C8C9" points="43.3,26.9 47.5,29.8 50.2,28.8 46.6,25.7 39.9,25.7 	"/>
	<polygon fill="#01C8C9" points="32.3,29.5 31.6,39.2 28.5,36.7 27.4,31.1 	"/>
	<polygon fill="#008085" points="41.1,35.4 31.6,39.2 32.3,29.5 35.4,31.2 	"/>
	<polygon fill="#00646C" points="28.5,36.7 29.8,42 33.7,46.4 38,45.4 41.1,35.4 31.6,39.2 	"/>
	<polygon fill="#014B4C" points="22.8,5 17.1,18.6 14.5,14.8 	"/>
	<polygon fill="#69FBFF" points="27.3,4 27.4,12.8 21.4,13.1 20.5,10.2 22.8,5 	"/>
	<polygon fill="#019996" points="18.3,24.8 18.6,21.8 21.4,13.1 27.4,12.8 26.4,19.8 23.1,25.4 19.9,24.2 	"/>
	<polygon fill="#008085" points="20.5,10.2 17.1,18.6 18.6,21.8 21.4,13.1 	"/>
	<polygon fill="#01E4E3" points="7.3,19 15,22.3 14.5,14.8 10,14.7 	"/>
	<polygon fill="#02B1B4" points="14.5,14.8 17.1,18.6 18.6,21.8 18.3,24.8 15,22.3 	"/>
	<polygon fill="#00646C" points="7.3,19 5.2,31.4 10.9,35 13.5,34.2 13.5,27.8 18.3,24.8 15,22.3 	"/>
	<polygon fill="#008085" points="15,22.3 13.5,34.2 18.3,24.8 	"/>
	<polygon fill="#01E4E3" points="19.9,24.2 19.9,27.8 13.5,31.7 13.5,27.8 18.3,24.8 	"/>
	<polygon fill="#03FCFE" points="25.2,26.1 19.9,27.8 19.9,24.2 	"/>
	<polygon fill="#01C8C9" points="27.4,31.1 21.8,36.1 19.9,27.8 	"/>
	<polygon fill="#B1FFFF" points="25.2,26.1 19.9,27.8 27.4,31.1 26.4,28.5 	"/>
	<polygon fill="#019996" points="21.8,36.1 13.5,34.2 13.5,31.7 19.9,27.8 	"/>
	<polygon fill="#014B4C" points="31.6,39.2 31.9,44.4 29.8,42 28.5,36.7 	"/>
	<polygon fill="#008085" points="23.3,45.4 21.8,36.1 27.4,31.1 29.8,42 25.6,42 	"/>
	<polygon fill="#014B4C" points="13.5,34.2 16.1,39.3 19.5,39.3 23.3,45.4 21.8,36.1 	"/>
	<polygon fill="#01C8C9" points="23.3,45.4 28.7,44.5 29.8,42 25.6,42 	"/>
	<polygon fill="#003334" points="33.7,46.4 29.8,42 28.7,44.5 23.3,45.4 28,48 	"/>
	<polygon fill="#008085" points="13.5,44.9 16.1,41.9 19.5,39.3 16.1,39.3 13.6,40.4 	"/>
	<polygon fill="#003334" points="19.5,39.3 23.3,45.4 18.5,47.3 13.5,44.9 16.1,41.9 	"/>
	<polygon fill="#003334" points="13.5,34.2 16.1,39.3 13.6,40.4 10.4,37.6 10.9,35 	"/>
	<polygon fill="#69FBFF" points="42.4,9.7 41.5,11.6 33.4,14.5 26.4,19.8 33.1,13.8 	"/>
	<polygon fill="#00646C" points="47.5,29.8 36.6,32.1 38.7,33.7 	"/>
	<polygon fill="#69FBFF" points="14.5,14.8 7.3,19 10,14.7 	"/>
	<polygon fill="#008085" points="28.7,44.5 33.7,46.4 29.8,42 	"/>
	<polygon fill="#019996" points="19.5,39.3 23.3,45.4 16.1,41.9 	"/>
	<polygon fill="#019996" points="15,22.3 18.6,21.8 18.3,24.8 	"/>
	<g>
		<g>
			<path fill="#FFFFFF" d="M27.3,4l0.2,8.8l-1,7.1l6.7-6l9.3-4.1l4.8,0.2l-1.7,6.6l-5.7,9.3h2.1h4.7l3.6,3.1l-2.8,1l-8.7,3.8
				l2.4,1.7l-3.1,10l-4.3,1L28,48l-4.7-2.6l-4.8,1.9l-5-2.4l0.2-4.5l-3.3-2.8l0.5-2.6l-5.7-3.6L7.3,19l2.8-4.3l4.5,0.2L22.8,5
				L27.3,4 M29.3,1.3l-2.5,0.6l-4.5,1l-0.7,0.2l-0.5,0.5l-7.6,9l-3.4-0.1l-1.2,0l-0.7,1l-2.8,4.3l-0.2,0.4l-0.1,0.4L3.1,31.1
				l-0.2,1.4l1.2,0.8L8.5,36l-0.2,1.2L8,38.4l1,0.8l2.5,2.1l-0.1,3.4l-0.1,1.4l1.2,0.6l5,2.4l0.8,0.4l0.9-0.3l3.9-1.5l3.8,2.1
				l0.8,0.4l0.8-0.2l5.7-1.5l4.3-1l1.2-0.3L40,46l3.1-10l0.4-1.4l-0.6-0.4l5.3-2.3l2.7-1l3.4-1.3l-2.7-2.3L48,24.1l-0.6-0.5h-0.8h-3
				l3.7-6.1l0.2-0.3l0.1-0.3l1.7-6.6L50,7.8l-2.6-0.1l-4.8-0.2l-0.5,0l-0.4,0.2l-9.3,4.1L32,12l-0.2,0.2l-2.4,2.1l0.2-1.3l0-0.2
				l0-0.2l-0.2-8.8L29.3,1.3L29.3,1.3z"/>
		</g>
	</g>
</g>
</svg>
